<svg xmlns="http://www.w3.org/2000/svg" xmlns:xlink="http://www.w3.org/1999/xlink" width="1000" zoomAndPan="magnify" viewBox="0 0 750 749.999995" height="1000" preserveAspectRatio="xMidYMid meet" version="1.0"><defs><clipPath id="c18c80ba09"><path d="M 519.359375 374 L 535 374 L 535 380.222656 L 519.359375 380.222656 Z M 519.359375 374 " clip-rule="nonzero"/></clipPath><clipPath id="c62c99eca5"><path d="M 519.359375 361.472656 L 530 361.472656 L 530 375 L 519.359375 375 Z M 519.359375 361.472656 " clip-rule="nonzero"/></clipPath><clipPath id="eddca18e78"><path d="M 530 363 L 537.359375 363 L 537.359375 378 L 530 378 Z M 530 363 " clip-rule="nonzero"/></clipPath><clipPath id="d7504a5787"><path d="M 28.125 1 L 430 1 L 430 514 L 28.125 514 Z M 28.125 1 " clip-rule="nonzero"/></clipPath><clipPath id="380c2e18b0"><path d="M 456 71 L 721.875 71 L 721.875 634 L 456 634 Z M 456 71 " clip-rule="nonzero"/></clipPath></defs><path fill="#ffffff" d="M 526.328125 368.941406 C 526.328125 370.019531 527.238281 370.898438 528.359375 370.898438 C 529.476562 370.898438 530.386719 370.023438 530.386719 368.941406 C 530.386719 367.867188 529.476562 366.988281 528.359375 366.988281 C 527.238281 366.988281 526.328125 367.867188 526.328125 368.941406 Z M 528.359375 370.132812 C 527.675781 370.132812 527.125 369.597656 527.125 368.941406 C 527.125 368.289062 527.675781 367.753906 528.359375 367.753906 C 529.039062 367.753906 529.589844 368.289062 529.589844 368.941406 C 529.589844 369.597656 529.039062 370.132812 528.359375 370.132812 Z M 528.359375 370.132812 " fill-opacity="1" fill-rule="nonzero"/><path fill="#ffffff" d="M 524.976562 372 L 523.753906 375.621094 C 523.683594 375.820312 523.796875 376.039062 524.007812 376.105469 C 524.214844 376.167969 524.441406 376.058594 524.507812 375.859375 L 525.734375 372.238281 C 525.8125 372.011719 526.03125 371.859375 526.28125 371.859375 L 530.433594 371.859375 C 530.683594 371.859375 530.902344 372.011719 530.980469 372.238281 L 532.207031 375.859375 C 532.261719 376.015625 532.414062 376.125 532.585938 376.125 C 532.625 376.125 532.667969 376.117188 532.707031 376.105469 C 532.917969 376.039062 533.03125 375.820312 532.964844 375.621094 L 531.738281 372 C 531.550781 371.457031 531.03125 371.089844 530.433594 371.089844 L 526.28125 371.089844 C 525.6875 371.089844 525.160156 371.457031 524.976562 372 Z M 524.976562 372 " fill-opacity="1" fill-rule="nonzero"/><g clip-path="url(#c18c80ba09)"><path fill="#ffffff" d="M 533.949219 377.488281 C 533.84375 377.480469 533.738281 377.515625 533.65625 377.582031 C 532.179688 378.789062 530.296875 379.457031 528.355469 379.457031 C 525.621094 379.457031 523.027344 378.105469 521.519531 375.914062 L 522.449219 376.175781 C 522.660156 376.234375 522.882812 376.117188 522.945312 375.914062 C 522.976562 375.816406 522.964844 375.710938 522.914062 375.625 C 522.863281 375.535156 522.777344 375.46875 522.675781 375.441406 L 520.777344 374.90625 C 520.671875 374.878906 520.566406 374.890625 520.472656 374.9375 C 520.378906 374.984375 520.3125 375.066406 520.285156 375.167969 L 519.730469 376.996094 C 519.699219 377.097656 519.710938 377.199219 519.761719 377.289062 C 519.8125 377.378906 519.894531 377.445312 520 377.472656 C 520.035156 377.484375 520.074219 377.488281 520.113281 377.488281 C 520.289062 377.488281 520.445312 377.375 520.496094 377.210938 L 520.789062 376.234375 C 521.578125 377.417969 522.660156 378.40625 523.929688 379.097656 C 525.277344 379.832031 526.808594 380.222656 528.359375 380.222656 C 530.492188 380.222656 532.554688 379.492188 534.175781 378.164062 C 534.34375 378.027344 534.367188 377.785156 534.222656 377.621094 C 534.152344 377.546875 534.054688 377.496094 533.949219 377.488281 Z M 533.949219 377.488281 " fill-opacity="1" fill-rule="nonzero"/></g><g clip-path="url(#c62c99eca5)"><path fill="#ffffff" d="M 520.125 374.316406 C 520.160156 374.316406 520.199219 374.3125 520.238281 374.300781 C 520.339844 374.269531 520.421875 374.203125 520.472656 374.113281 C 520.523438 374.023438 520.535156 373.917969 520.503906 373.824219 C 520.277344 373.09375 520.164062 372.332031 520.164062 371.558594 C 520.164062 367.207031 523.839844 363.664062 528.359375 363.664062 C 528.363281 363.664062 528.371094 363.664062 528.378906 363.664062 L 527.621094 364.296875 C 527.539062 364.363281 527.492188 364.457031 527.484375 364.558594 C 527.476562 364.660156 527.511719 364.761719 527.582031 364.839844 C 527.65625 364.921875 527.765625 364.972656 527.882812 364.972656 C 527.976562 364.972656 528.070312 364.9375 528.140625 364.875 L 529.636719 363.625 C 529.714844 363.558594 529.765625 363.464844 529.773438 363.363281 C 529.777344 363.261719 529.742188 363.164062 529.675781 363.085938 L 528.378906 361.648438 C 528.238281 361.488281 527.984375 361.472656 527.820312 361.609375 C 527.65625 361.75 527.636719 361.992188 527.78125 362.152344 L 528.453125 362.898438 C 528.421875 362.898438 528.390625 362.898438 528.359375 362.898438 C 525.957031 362.898438 523.703125 363.796875 522 365.433594 C 520.304688 367.070312 519.371094 369.246094 519.371094 371.5625 C 519.371094 372.40625 519.496094 373.242188 519.746094 374.042969 C 519.792969 374.203125 519.949219 374.316406 520.125 374.316406 Z M 520.125 374.316406 " fill-opacity="1" fill-rule="nonzero"/></g><g clip-path="url(#eddca18e78)"><path fill="#ffffff" d="M 537.03125 376.316406 C 536.945312 376.257812 536.839844 376.230469 536.738281 376.246094 L 535.824219 376.386719 C 536.25 375.777344 536.597656 375.113281 536.847656 374.417969 C 537.179688 373.5 537.351562 372.539062 537.351562 371.558594 C 537.351562 369.667969 536.730469 367.871094 535.554688 366.363281 C 534.988281 365.636719 534.3125 365.003906 533.546875 364.480469 C 532.765625 363.949219 531.910156 363.542969 531 363.273438 C 530.792969 363.214844 530.570312 363.328125 530.503906 363.527344 C 530.472656 363.625 530.484375 363.730469 530.535156 363.820312 C 530.585938 363.910156 530.667969 363.976562 530.769531 364.007812 C 534.230469 365.03125 536.554688 368.066406 536.554688 371.558594 C 536.554688 373.179688 536.054688 374.722656 535.101562 376.042969 L 534.925781 374.980469 C 534.910156 374.878906 534.851562 374.792969 534.765625 374.730469 C 534.679688 374.671875 534.574219 374.648438 534.472656 374.664062 C 534.253906 374.695312 534.105469 374.894531 534.140625 375.101562 L 534.453125 376.984375 C 534.488281 377.171875 534.652344 377.308594 534.847656 377.308594 C 534.871094 377.308594 534.890625 377.304688 534.914062 377.300781 L 536.863281 377 C 537.082031 376.96875 537.230469 376.769531 537.195312 376.5625 C 537.175781 376.464844 537.117188 376.375 537.03125 376.316406 Z M 537.03125 376.316406 " fill-opacity="1" fill-rule="nonzero"/></g><path fill="#fdfdfd" d="M 296.660156 298.871094 C 296.660156 341.96875 331.722656 377.121094 374.910156 377.121094 C 418.011719 377.121094 453.160156 342.058594 453.160156 298.871094 C 453.160156 255.769531 418.097656 220.621094 374.910156 220.621094 C 331.8125 220.621094 296.660156 255.769531 296.660156 298.871094 Z M 374.910156 346.386719 C 348.679688 346.386719 327.394531 325.101562 327.394531 298.871094 C 327.394531 272.640625 348.679688 251.355469 374.910156 251.355469 C 401.140625 251.355469 422.425781 272.640625 422.425781 298.871094 C 422.425781 325.101562 401.140625 346.386719 374.910156 346.386719 Z M 374.910156 346.386719 " fill-opacity="1" fill-rule="nonzero"/><path fill="#fdfdfd" d="M 244.640625 421.191406 L 197.390625 565.945312 C 194.742188 573.980469 199.15625 582.636719 207.195312 585.285156 C 215.230469 587.9375 223.886719 583.519531 226.535156 575.484375 L 273.785156 430.730469 C 276.789062 421.542969 285.269531 415.449219 294.894531 415.449219 L 454.929688 415.449219 C 464.554688 415.449219 473.035156 421.632812 476.035156 430.730469 L 523.285156 575.484375 C 525.316406 581.839844 531.234375 586.082031 537.859375 586.082031 C 539.449219 586.082031 541.039062 585.816406 542.628906 585.285156 C 550.664062 582.636719 555.082031 573.980469 552.433594 565.945312 L 505.179688 421.191406 C 498.027344 399.375 477.890625 384.714844 454.929688 384.714844 L 294.894531 384.714844 C 271.933594 384.714844 251.707031 399.375 244.640625 421.191406 Z M 244.640625 421.191406 " fill-opacity="1" fill-rule="nonzero"/><path fill="#fdfdfd" d="M 590.410156 640.75 C 586.347656 640.398438 582.371094 641.722656 579.191406 644.371094 C 522.226562 692.769531 449.71875 719.351562 374.824219 719.351562 C 269.371094 719.351562 169.394531 665.390625 111.371094 577.777344 L 147.226562 588.199219 C 155.351562 590.585938 163.917969 585.90625 166.304688 577.777344 C 167.453125 573.804688 167.011719 569.652344 165.066406 566.121094 C 163.125 562.589844 159.855469 559.9375 155.882812 558.789062 L 82.667969 537.417969 C 78.691406 536.269531 74.539062 536.710938 71.007812 538.652344 C 67.386719 540.597656 64.824219 543.863281 63.675781 547.839844 L 42.304688 621.054688 C 41.15625 625.03125 41.597656 629.179688 43.542969 632.714844 C 45.484375 636.246094 48.75 638.894531 52.726562 640.042969 C 54.140625 640.484375 55.550781 640.660156 57.054688 640.660156 C 63.855469 640.660156 69.859375 636.070312 71.804688 629.621094 L 83.195312 590.585938 C 113.578125 637.925781 155.265625 677.402344 204.191406 705.046875 C 256.125 734.457031 315.207031 750 375 750 C 457.136719 750 536.710938 720.765625 599.242188 667.6875 C 605.6875 662.210938 606.484375 652.496094 601.007812 646.050781 C 598.269531 642.957031 594.558594 641.015625 590.410156 640.75 Z M 590.410156 640.75 " fill-opacity="1" fill-rule="nonzero"/><g clip-path="url(#d7504a5787)"><path fill="#fdfdfd" d="M 57.496094 513.75 C 58.996094 513.75 60.5 513.570312 61.910156 513.128906 C 65.886719 511.980469 69.066406 509.332031 71.007812 505.710938 C 72.949219 502.089844 73.394531 497.9375 72.246094 494.054688 C 63.5 464.820312 59.085938 434.351562 59.085938 403.527344 C 59.085938 229.363281 200.746094 87.699219 374.910156 87.699219 C 375.175781 87.699219 375.441406 87.699219 375.707031 87.699219 L 346.472656 113.046875 C 343.382812 115.695312 341.527344 119.496094 341.261719 123.558594 C 340.996094 127.621094 342.320312 131.59375 344.972656 134.683594 C 347.886719 138.042969 352.125 139.984375 356.542969 139.984375 C 360.25 139.984375 363.785156 138.660156 366.609375 136.1875 L 424.191406 86.199219 C 427.285156 83.550781 429.140625 79.75 429.402344 75.6875 C 429.667969 71.625 428.34375 67.652344 425.695312 64.5625 L 375.792969 7.066406 C 370.230469 0.707031 360.515625 0 354.15625 5.5625 C 347.796875 11.128906 347.089844 20.84375 352.65625 27.203125 L 378.53125 57.054688 C 377.382812 57.054688 376.148438 57.054688 375 57.054688 C 282.441406 57.054688 195.449219 93.085938 129.917969 158.53125 C 64.472656 223.976562 28.4375 310.96875 28.4375 403.613281 C 28.4375 437.441406 33.296875 470.824219 42.921875 502.886719 C 44.777344 509.242188 50.78125 513.75 57.496094 513.75 Z M 57.496094 513.75 " fill-opacity="1" fill-rule="nonzero"/></g><g clip-path="url(#380c2e18b0)"><path fill="#fdfdfd" d="M 709.285156 593.765625 C 705.929688 591.378906 701.867188 590.410156 697.890625 591.027344 L 662.742188 596.679688 C 679.167969 572.214844 692.503906 545.71875 702.21875 517.898438 C 715.027344 481.160156 721.5625 442.742188 721.5625 403.4375 C 721.5625 327.839844 697.628906 255.945312 652.320312 195.625 C 630.503906 166.570312 604.453125 141.308594 574.863281 120.378906 C 544.835938 99.183594 511.894531 82.929688 476.832031 72.15625 C 468.707031 69.683594 460.140625 74.277344 457.664062 82.3125 C 456.429688 86.199219 456.871094 90.351562 458.8125 93.972656 C 460.757812 97.59375 463.9375 100.242188 467.910156 101.476562 C 601.273438 142.457031 690.828125 263.808594 690.828125 403.4375 C 690.828125 468.265625 671.574219 530.085938 634.921875 582.8125 L 628.121094 540.421875 C 627.503906 536.359375 625.292969 532.824219 621.9375 530.441406 C 618.582031 528.054688 614.519531 527.085938 610.546875 527.703125 C 602.15625 529.027344 596.503906 536.976562 597.828125 545.277344 L 609.925781 620.523438 C 611.164062 628.03125 617.523438 633.417969 625.117188 633.417969 C 625.914062 633.417969 626.796875 633.332031 627.589844 633.242188 L 702.835938 621.144531 C 711.226562 619.820312 716.878906 611.871094 715.554688 603.566406 C 714.761719 599.683594 712.554688 596.148438 709.285156 593.765625 Z M 709.285156 593.765625 " fill-opacity="1" fill-rule="nonzero"/></g></svg>