<?xml version="1.0" standalone="no"?>
<!DOCTYPE svg PUBLIC "-//W3C//DTD SVG 20010904//EN"
 "http://www.w3.org/TR/2001/REC-SVG-20010904/DTD/svg10.dtd">
<svg version="1.0" xmlns="http://www.w3.org/2000/svg"
 width="1661.000000pt" height="658.000000pt" viewBox="0 0 1661.000000 658.000000"
 preserveAspectRatio="xMidYMid meet">

<g transform="translate(0.000000,658.000000) scale(0.100000,-0.100000)"
fill="#000000" stroke="none">
<path d="M13726 6534 c-506 -67 -986 -269 -1361 -571 -120 -97 -317 -297 -402
-409 -152 -200 -283 -460 -373 -739 -200 -620 -159 -1368 104 -1910 121 -251
248 -428 456 -635 264 -264 578 -467 930 -600 69 -26 136 -50 151 -53 l25 -6
17 -323 c10 -178 17 -363 17 -413 0 -205 32 -357 90 -427 39 -47 135 -94 223
-109 l68 -11 28 -57 c45 -88 111 -155 196 -197 73 -36 75 -36 177 -32 89 3
111 8 161 33 78 39 158 125 188 204 l23 60 71 12 c155 26 232 76 281 181 28
62 29 67 32 258 2 107 -4 330 -12 494 -9 165 -13 303 -9 307 5 3 33 15 63 24
471 152 933 511 1229 955 197 293 321 604 383 955 20 114 23 164 23 410 0 291
-5 352 -50 575 -138 680 -517 1288 -1025 1644 -258 182 -550 296 -935 367
-147 28 -603 35 -769 13z m529 -164 c434 -36 826 -179 1150 -421 476 -355 801
-944 906 -1639 29 -193 31 -522 5 -715 -101 -735 -582 -1383 -1281 -1725 -166
-81 -258 -115 -380 -140 -49 -10 -110 -25 -135 -34 -25 -8 -117 -22 -205 -31
-88 -9 -188 -20 -222 -24 -35 -4 -63 -4 -63 1 0 12 -78 10 -82 -2 -4 -13 -460
59 -473 75 -5 6 -58 26 -117 43 -573 169 -1123 569 -1405 1022 -147 237 -255
545 -299 856 -37 257 -22 618 37 889 72 334 227 685 406 918 378 492 982 829
1638 911 211 27 335 31 520 16z m-644 -4849 c277 -52 617 -54 867 -6 78 15
144 26 146 24 2 -2 7 -50 11 -105 l7 -102 -93 -6 c-79 -5 -1101 -26 -1106 -22
-1 0 -3 57 -5 124 l-3 124 35 -5 c19 -3 83 -15 141 -26z m1044 -482 c4 -66 6
-121 4 -123 -2 -2 -273 -6 -601 -10 l-598 -6 0 114 0 113 122 6 c66 4 257 8
422 8 250 1 468 7 617 17 l27 2 7 -121z m0 -356 c-10 -83 -23 -105 -80 -133
l-50 -25 -477 0 c-466 0 -477 0 -505 21 -35 26 -61 77 -69 137 l-7 47 319 3
c176 1 444 3 597 5 l278 2 -6 -57z m-456 -342 l65 -6 -34 -38 c-93 -107 -241
-110 -340 -9 l-45 47 90 6 c126 7 190 8 264 0z"/>
<path d="M13905 5285 c-142 -53 -207 -220 -137 -356 29 -58 95 -116 143 -126
28 -5 29 -8 29 -60 0 -55 0 -55 -27 -48 -145 35 -261 166 -279 314 -3 31 -11
62 -16 69 -8 9 -131 12 -554 12 -540 0 -543 0 -554 -21 -33 -60 33 -194 121
-246 20 -12 30 -28 34 -54 10 -60 57 -124 117 -158 29 -17 61 -31 71 -31 10 0
17 -8 17 -18 0 -28 51 -99 91 -126 40 -27 92 -46 125 -46 14 0 25 -8 29 -19 8
-27 80 -90 121 -107 18 -8 59 -14 90 -14 49 0 59 -3 77 -26 45 -57 181 -92
252 -65 13 5 30 0 53 -16 60 -40 134 -53 200 -34 l32 10 0 -281 0 -280 -42 7
c-155 26 -286 130 -296 234 -7 78 4 115 54 170 l45 50 -23 35 c-13 20 -27 36
-32 36 -18 0 -99 -94 -119 -139 -16 -34 -22 -66 -22 -121 0 -96 25 -152 99
-224 67 -66 153 -110 257 -132 l79 -17 0 -205 0 -204 -37 7 c-138 25 -236 129
-214 226 5 22 16 48 25 58 22 25 20 33 -15 67 l-31 29 -24 -30 c-57 -71 -70
-186 -30 -264 47 -90 152 -156 299 -186 l27 -5 0 -144 0 -145 -31 9 c-87 25
-144 90 -134 151 6 34 4 38 -30 59 -20 12 -37 21 -39 19 -29 -34 -34 -120 -12
-174 30 -70 153 -155 226 -155 19 0 20 -8 20 -160 l0 -160 50 0 50 0 0 150 c0
164 3 172 54 125 30 -28 33 -51 10 -76 -16 -17 -15 -21 10 -54 15 -19 31 -35
36 -35 14 0 49 50 59 86 21 76 -32 160 -121 192 l-48 17 0 142 c0 163 -1 161
80 119 76 -38 103 -97 76 -166 -4 -10 6 -23 27 -37 18 -13 37 -23 41 -23 14 0
36 70 36 115 0 96 -76 181 -192 216 l-68 21 0 209 c0 115 2 209 4 209 2 0 33
-9 68 -20 163 -50 231 -173 152 -277 -13 -17 -24 -36 -24 -40 0 -5 14 -22 31
-39 l31 -29 25 30 c144 173 27 410 -227 458 l-60 12 0 281 0 281 46 -10 c58
-14 144 3 188 36 22 17 37 22 51 16 70 -27 207 8 252 65 18 23 28 26 77 26 31
0 72 6 90 14 41 17 113 80 121 107 4 11 15 19 29 19 34 0 100 25 135 51 32 23
76 84 82 111 2 9 33 32 69 50 73 38 126 102 136 168 5 29 14 41 46 61 53 32
96 97 111 165 20 97 67 89 -553 92 -392 1 -547 -1 -556 -9 -8 -6 -14 -26 -14
-43 0 -88 -61 -211 -132 -267 -38 -30 -139 -78 -165 -79 -9 0 -13 18 -13 55 0
43 3 55 15 55 50 0 143 80 171 146 18 44 18 152 -1 197 -50 120 -200 186 -320
142z m165 -107 c75 -52 98 -125 61 -200 -29 -59 -63 -81 -131 -86 -45 -3 -61
0 -89 20 -57 38 -76 73 -76 133 0 88 67 155 155 155 32 0 57 -7 80 -22z m-517
-248 c42 -159 175 -290 332 -325 l50 -11 3 -186 2 -186 -31 -11 c-33 -12 -109
-15 -109 -5 0 3 19 37 41 75 36 61 40 73 31 94 -21 45 -56 33 -138 -44 -50
-48 -85 -73 -113 -81 -36 -9 -80 -6 -104 7 -5 3 28 42 72 87 65 67 79 87 74
105 -3 13 -16 27 -29 33 -19 9 -37 1 -131 -60 -121 -80 -167 -93 -226 -68 -20
8 -37 19 -37 23 0 4 41 34 90 65 80 52 90 61 90 88 0 19 -7 33 -21 40 -17 10
-41 3 -137 -36 -72 -29 -133 -47 -158 -47 -40 0 -104 27 -111 48 -2 6 35 26
83 45 105 42 124 55 124 84 0 48 -21 52 -144 28 -131 -26 -165 -27 -209 -8
-37 15 -72 50 -63 64 3 5 38 14 78 21 111 19 137 29 144 57 11 45 -6 51 -154
56 -148 4 -182 14 -221 64 -44 56 -60 54 442 54 l463 0 17 -70z m1817 56 c0
-21 -38 -65 -73 -83 -24 -13 -66 -18 -167 -21 -137 -4 -160 -10 -160 -43 0
-32 27 -46 122 -64 125 -24 127 -25 84 -63 -51 -45 -91 -49 -231 -23 -67 12
-129 19 -138 15 -22 -8 -33 -50 -17 -68 6 -8 54 -32 106 -52 52 -21 93 -42 91
-48 -7 -21 -70 -49 -111 -49 -25 0 -85 18 -156 47 -63 25 -117 46 -121 46 -16
0 -39 -33 -39 -54 0 -18 21 -37 96 -87 l97 -64 -39 -17 c-71 -32 -106 -22
-252 74 -83 55 -95 60 -117 50 -18 -8 -25 -19 -25 -40 0 -21 17 -45 75 -102
49 -48 71 -78 65 -84 -5 -5 -32 -9 -59 -9 -60 1 -96 21 -171 97 -57 58 -86 69
-114 40 -23 -22 -20 -32 24 -102 22 -34 40 -68 40 -74 0 -15 -104 -5 -125 12
-13 11 -15 39 -13 194 l3 180 42 8 c149 25 303 173 343 328 6 25 13 51 15 58
7 19 925 18 925 -2z"/>
<path d="M14304 4055 l-27 -35 35 -34 c95 -92 95 -219 0 -311 l-36 -34 20 -36
c10 -20 23 -39 27 -42 5 -3 32 19 62 49 118 122 126 292 19 416 -55 65 -68 69
-100 27z"/>
<path d="M13770 2456 c0 -28 40 -90 60 -93 8 -2 25 13 38 32 21 33 21 37 6 60
-13 20 -24 25 -60 25 -40 0 -44 -2 -44 -24z"/>
<path d="M5310 4025 c-275 -62 -479 -249 -562 -515 -19 -64 -23 -96 -22 -210
0 -119 4 -145 27 -215 82 -243 279 -430 519 -491 96 -25 268 -25 358 -1 101
27 237 98 308 162 162 148 245 336 244 555 -1 214 -81 394 -239 539 -72 67
-206 140 -303 167 -82 22 -252 27 -330 9z m334 -339 c157 -77 246 -235 233
-411 -12 -167 -113 -306 -264 -367 -48 -18 -77 -23 -164 -23 -101 0 -108 1
-180 37 -93 46 -158 112 -202 206 -30 63 -32 74 -32 177 0 103 2 114 32 177
54 114 134 187 250 228 47 17 76 20 155 17 89 -4 105 -7 172 -41z"/>
<path d="M8850 4025 c-275 -62 -479 -249 -562 -515 -19 -64 -23 -96 -22 -210
0 -119 4 -145 27 -215 82 -243 279 -430 519 -491 96 -25 268 -25 358 -1 101
27 237 98 308 162 162 148 245 336 244 555 -1 214 -81 394 -239 539 -72 67
-206 140 -303 167 -82 22 -252 27 -330 9z m334 -339 c157 -77 246 -235 233
-411 -12 -167 -113 -306 -264 -367 -48 -18 -77 -23 -164 -23 -101 0 -108 1
-180 37 -93 46 -158 112 -202 206 -30 63 -32 74 -32 177 0 103 2 114 32 177
54 114 134 187 250 228 47 17 76 20 155 17 89 -4 105 -7 172 -41z"/>
<path d="M60 3305 l0 -715 155 0 155 0 0 715 0 715 -155 0 -155 0 0 -715z"/>
<path d="M950 3305 l0 -715 160 0 160 0 2 468 3 468 345 -468 345 -468 163 0
162 0 0 715 0 715 -155 0 -155 0 -2 -471 -3 -471 -350 471 -350 471 -162 0
-163 0 0 -715z"/>
<path d="M2860 3305 l0 -715 160 0 160 0 2 468 3 468 345 -468 345 -468 163 0
162 0 0 715 0 715 -155 0 -155 0 -2 -471 -3 -471 -350 471 -350 471 -162 0
-163 0 0 -715z"/>
<path d="M6563 3932 c18 -48 133 -370 257 -715 l225 -627 176 0 c159 0 178 2
184 18 19 49 505 1401 505 1406 0 3 -78 6 -173 6 l-172 0 -169 -506 c-92 -278
-171 -502 -175 -499 -3 4 -81 230 -172 503 l-166 497 -175 3 -176 2 31 -88z"/>
</g>
</svg>
