<svg xmlns="http://www.w3.org/2000/svg" xmlns:xlink="http://www.w3.org/1999/xlink" width="1000" zoomAndPan="magnify" viewBox="0 0 750 749.999995" height="1000" preserveAspectRatio="xMidYMid meet" version="1.0"><defs><g/><clipPath id="a34f0475e4"><path d="M 12.652344 13.296875 L 740.902344 13.296875 L 740.902344 741.546875 L 12.652344 741.546875 Z M 12.652344 13.296875 " clip-rule="nonzero"/></clipPath><clipPath id="614207536e"><path d="M 157 83 L 583 83 L 583 377 L 157 377 Z M 157 83 " clip-rule="nonzero"/></clipPath><clipPath id="5ef3672d94"><path d="M 157.546875 181.335938 L 355.605469 -40.832031 L 585.8125 164.390625 L 387.753906 386.558594 Z M 157.546875 181.335938 " clip-rule="nonzero"/></clipPath><clipPath id="614d9aa04b"><path d="M 157.546875 181.335938 C 211.082031 121.285156 286.898438 85.824219 367.304688 83.222656 C 447.707031 80.625 525.660156 111.117188 582.957031 167.585938 L 376.792969 376.789062 L 157.546875 181.335938 " clip-rule="nonzero"/></clipPath><clipPath id="40a34d4779"><path d="M 376 157 L 671 157 L 671 583 L 376 583 Z M 376 157 " clip-rule="nonzero"/></clipPath><clipPath id="9131af256e"><path d="M 367.019531 387.75 L 572.246094 157.542969 L 794.410156 355.601562 L 589.1875 585.808594 Z M 367.019531 387.75 " clip-rule="nonzero"/></clipPath><clipPath id="b4ccba7460"><path d="M 572.246094 157.542969 C 632.292969 211.074219 667.757812 286.894531 670.355469 367.296875 C 672.953125 447.703125 642.460938 525.652344 585.996094 582.953125 L 376.792969 376.789062 L 572.246094 157.542969 " clip-rule="nonzero"/></clipPath><clipPath id="cd31c3690f"><path d="M 170 376 L 597 376 L 597 671 L 170 671 Z M 170 376 " clip-rule="nonzero"/></clipPath><clipPath id="de919e8b81"><path d="M 167.773438 589.183594 L 365.832031 367.015625 L 596.035156 572.238281 L 397.980469 794.40625 Z M 167.773438 589.183594 " clip-rule="nonzero"/></clipPath><clipPath id="81878b33cf"><path d="M 596.035156 572.238281 C 542.503906 632.289062 466.6875 667.75 386.28125 670.351562 C 305.878906 672.949219 227.925781 642.457031 170.628906 585.988281 L 376.792969 376.789062 L 596.035156 572.238281 " clip-rule="nonzero"/></clipPath><clipPath id="321109a932"><path d="M 83 181 L 377 181 L 377 597 L 83 597 Z M 83 181 " clip-rule="nonzero"/></clipPath><clipPath id="ec71fd85af"><path d="M -37.902344 400.582031 L 157.546875 181.335938 L 376.792969 376.789062 L 181.339844 596.03125 Z M -37.902344 400.582031 " clip-rule="nonzero"/></clipPath><clipPath id="1c84b00f9d"><path d="M 181.339844 596.03125 C 60.265625 488.09375 49.605469 302.445312 157.527344 181.359375 L 376.792969 376.789062 L 181.339844 596.03125 " clip-rule="nonzero"/></clipPath></defs><g clip-path="url(#a34f0475e4)"><path fill="#c8dbe0" d="M 376.871094 13.296875 C 175.722656 13.296875 12.652344 176.367188 12.652344 377.515625 C 12.652344 578.667969 175.722656 741.734375 376.871094 741.734375 C 578.023438 741.734375 741.085938 578.667969 741.085938 377.515625 C 741.085938 176.367188 578.023438 13.296875 376.871094 13.296875 Z M 376.871094 665.859375 C 217.621094 665.859375 88.527344 536.765625 88.527344 377.523438 C 88.527344 218.269531 217.621094 89.179688 376.871094 89.179688 C 536.117188 89.179688 665.210938 218.273438 665.210938 377.523438 C 665.210938 536.765625 536.117188 665.859375 376.871094 665.859375 Z M 376.871094 665.859375 " fill-opacity="1" fill-rule="nonzero"/></g><g clip-path="url(#614207536e)"><g clip-path="url(#5ef3672d94)"><g clip-path="url(#614d9aa04b)"><path fill="#6ce5e8" d="M -37.902344 400.582031 L 353 -37.910156 L 791.488281 352.996094 L 400.585938 791.484375 Z M -37.902344 400.582031 " fill-opacity="1" fill-rule="nonzero"/></g></g></g><g clip-path="url(#40a34d4779)"><g clip-path="url(#9131af256e)"><g clip-path="url(#b4ccba7460)"><path fill="#41b8d5" d="M -37.902344 400.582031 L 353 -37.910156 L 791.488281 352.996094 L 400.585938 791.484375 Z M -37.902344 400.582031 " fill-opacity="1" fill-rule="nonzero"/></g></g></g><g clip-path="url(#cd31c3690f)"><g clip-path="url(#de919e8b81)"><g clip-path="url(#81878b33cf)"><path fill="#2d8bba" d="M -37.902344 400.582031 L 353 -37.910156 L 791.488281 352.996094 L 400.585938 791.484375 Z M -37.902344 400.582031 " fill-opacity="1" fill-rule="nonzero"/></g></g></g><g clip-path="url(#321109a932)"><g clip-path="url(#ec71fd85af)"><g clip-path="url(#1c84b00f9d)"><path fill="#689dc0" d="M -37.902344 400.582031 L 353 -37.910156 L 791.488281 352.996094 L 400.585938 791.484375 Z M -37.902344 400.582031 " fill-opacity="1" fill-rule="nonzero"/></g></g></g><g fill="#041f60" fill-opacity="1"><g transform="translate(201.545518, 652.918237)"><g><path d="M 13.140625 9.734375 L 15 4.53125 L 8.5 -0.28125 L 4.0625 3.015625 L 0 0 L 19.546875 -13.21875 L 24.140625 -9.796875 L 17.21875 12.75 Z M 16.4375 0.703125 L 18.21875 -4.390625 C 18.34375 -4.734375 18.5 -5.171875 18.6875 -5.703125 C 18.875 -6.234375 19.066406 -6.769531 19.265625 -7.3125 C 19.460938 -7.863281 19.644531 -8.335938 19.8125 -8.734375 C 19.476562 -8.460938 19.054688 -8.132812 18.546875 -7.75 C 18.046875 -7.363281 17.566406 -7 17.109375 -6.65625 C 16.660156 -6.3125 16.335938 -6.066406 16.140625 -5.921875 L 11.796875 -2.734375 Z M 16.4375 0.703125 "/></g></g></g><g fill="#041f60" fill-opacity="1"><g transform="translate(219.448686, 666.098626)"><g><path d="M 6.4375 4.40625 C 4.832031 3.394531 3.921875 1.945312 3.703125 0.0625 C 3.484375 -1.820312 4.140625 -3.976562 5.671875 -6.40625 C 7.210938 -8.863281 8.890625 -10.398438 10.703125 -11.015625 C 12.515625 -11.640625 14.238281 -11.4375 15.875 -10.40625 C 16.5625 -9.96875 17.109375 -9.488281 17.515625 -8.96875 C 17.921875 -8.457031 18.21875 -7.925781 18.40625 -7.375 C 18.59375 -6.820312 18.691406 -6.265625 18.703125 -5.703125 L 18.84375 -5.625 C 18.957031 -5.925781 19.144531 -6.363281 19.40625 -6.9375 C 19.664062 -7.519531 19.972656 -8.097656 20.328125 -8.671875 L 23.21875 -13.265625 L 27.15625 -10.796875 L 14.59375 9.171875 L 11.578125 7.296875 L 12 4.953125 L 11.828125 4.84375 C 11.328125 5.082031 10.789062 5.25 10.21875 5.34375 C 9.644531 5.4375 9.039062 5.410156 8.40625 5.265625 C 7.78125 5.117188 7.125 4.832031 6.4375 4.40625 Z M 9.765625 2.15625 C 10.835938 2.832031 11.789062 2.988281 12.625 2.625 C 13.46875 2.257812 14.304688 1.445312 15.140625 0.1875 L 15.421875 -0.234375 C 16.296875 -1.640625 16.75 -2.84375 16.78125 -3.84375 C 16.820312 -4.84375 16.257812 -5.710938 15.09375 -6.453125 C 14.226562 -6.992188 13.316406 -7.046875 12.359375 -6.609375 C 11.410156 -6.179688 10.492188 -5.269531 9.609375 -3.875 C 8.722656 -2.457031 8.300781 -1.238281 8.34375 -0.21875 C 8.394531 0.800781 8.867188 1.59375 9.765625 2.15625 Z M 9.765625 2.15625 "/></g></g></g><g fill="#041f60" fill-opacity="1"><g transform="translate(236.731604, 676.904762)"><g><path d="M 5.6875 3.046875 L 8.015625 -14.9375 L 12.265625 -12.65625 L 10.59375 -2.59375 C 10.488281 -2 10.332031 -1.398438 10.125 -0.796875 C 9.925781 -0.203125 9.722656 0.320312 9.515625 0.78125 L 9.625 0.84375 C 9.90625 0.375 10.238281 -0.09375 10.625 -0.5625 C 11.019531 -1.039062 11.4375 -1.488281 11.875 -1.90625 L 19.3125 -8.875 L 23.578125 -6.59375 L 9.875 5.296875 Z M 5.6875 3.046875 "/></g></g></g><g fill="#041f60" fill-opacity="1"><g transform="translate(252.929919, 685.590298)"><g><path d="M 15.6875 -11.875 C 17.75 -10.945312 19.125 -9.78125 19.8125 -8.375 C 20.507812 -6.96875 20.441406 -5.347656 19.609375 -3.515625 L 14.953125 6.78125 L 12.015625 5.4375 L 12.15625 2.984375 L 12.046875 2.921875 C 11.359375 3.273438 10.703125 3.519531 10.078125 3.65625 C 9.453125 3.789062 8.800781 3.804688 8.125 3.703125 C 7.457031 3.597656 6.695312 3.351562 5.84375 2.96875 C 4.925781 2.550781 4.1875 2.007812 3.625 1.34375 C 3.0625 0.675781 2.734375 -0.113281 2.640625 -1.03125 C 2.554688 -1.957031 2.769531 -2.972656 3.28125 -4.078125 C 4.019531 -5.722656 5.140625 -6.671875 6.640625 -6.921875 C 8.148438 -7.171875 10.070312 -6.8125 12.40625 -5.84375 L 15.125 -4.734375 L 15.4375 -5.421875 C 15.800781 -6.222656 15.851562 -6.90625 15.59375 -7.46875 C 15.34375 -8.039062 14.84375 -8.5 14.09375 -8.84375 C 13.34375 -9.1875 12.5625 -9.410156 11.75 -9.515625 C 10.9375 -9.628906 10.097656 -9.691406 9.234375 -9.703125 L 9.125 -13.171875 C 10.144531 -13.234375 11.21875 -13.15625 12.34375 -12.9375 C 13.476562 -12.726562 14.59375 -12.375 15.6875 -11.875 Z M 14.03125 -2.28125 L 12.359375 -2.96875 C 10.984375 -3.539062 9.925781 -3.71875 9.1875 -3.5 C 8.457031 -3.289062 7.925781 -2.816406 7.59375 -2.078125 C 7.300781 -1.429688 7.28125 -0.882812 7.53125 -0.4375 C 7.78125 0 8.210938 0.351562 8.828125 0.625 C 9.722656 1.03125 10.601562 1.109375 11.46875 0.859375 C 12.332031 0.609375 12.988281 -0.0078125 13.4375 -1 Z M 14.03125 -2.28125 "/></g></g></g><g fill="#041f60" fill-opacity="1"><g transform="translate(270.71699, 693.651231)"><g><path d="M 17.265625 -12.046875 C 18.972656 -11.410156 20.171875 -10.441406 20.859375 -9.140625 C 21.554688 -7.835938 21.523438 -6.160156 20.765625 -4.109375 L 16.953125 6.25 L 12.625 4.65625 L 16.046875 -4.640625 C 16.460938 -5.773438 16.566406 -6.707031 16.359375 -7.4375 C 16.160156 -8.175781 15.625 -8.707031 14.75 -9.03125 C 13.414062 -9.519531 12.335938 -9.398438 11.515625 -8.671875 C 10.703125 -7.953125 9.984375 -6.742188 9.359375 -5.046875 L 6.609375 2.4375 L 2.265625 0.84375 L 8.125 -15.0625 L 11.453125 -13.84375 L 11.28125 -11.609375 L 11.53125 -11.515625 C 12.0625 -11.929688 12.644531 -12.21875 13.28125 -12.375 C 13.914062 -12.53125 14.570312 -12.570312 15.25 -12.5 C 15.9375 -12.4375 16.609375 -12.285156 17.265625 -12.046875 Z M 17.265625 -12.046875 "/></g></g></g><g fill="#041f60" fill-opacity="1"><g transform="translate(290.570116, 700.855819)"><g><path d="M 8.859375 2.90625 C 7.242188 2.4375 5.957031 1.742188 5 0.828125 C 4.039062 -0.0859375 3.441406 -1.25 3.203125 -2.65625 C 2.960938 -4.0625 3.125 -5.726562 3.6875 -7.65625 C 4.269531 -9.632812 5.082031 -11.15625 6.125 -12.21875 C 7.175781 -13.28125 8.382812 -13.925781 9.75 -14.15625 C 11.125 -14.394531 12.601562 -14.285156 14.1875 -13.828125 C 15.300781 -13.492188 16.238281 -13.097656 17 -12.640625 C 17.757812 -12.179688 18.398438 -11.710938 18.921875 -11.234375 L 16.609375 -8.171875 C 15.984375 -8.671875 15.394531 -9.097656 14.84375 -9.453125 C 14.300781 -9.804688 13.734375 -10.070312 13.140625 -10.25 C 12.359375 -10.476562 11.65625 -10.488281 11.03125 -10.28125 C 10.414062 -10.070312 9.875 -9.640625 9.40625 -8.984375 C 8.945312 -8.328125 8.554688 -7.445312 8.234375 -6.34375 C 7.910156 -5.28125 7.78125 -4.351562 7.84375 -3.5625 C 7.90625 -2.769531 8.144531 -2.125 8.5625 -1.625 C 8.976562 -1.132812 9.554688 -0.78125 10.296875 -0.5625 C 11.210938 -0.289062 12.066406 -0.171875 12.859375 -0.203125 C 13.648438 -0.242188 14.445312 -0.382812 15.25 -0.625 L 14.140625 3.15625 C 13.335938 3.394531 12.535156 3.492188 11.734375 3.453125 C 10.941406 3.421875 9.984375 3.238281 8.859375 2.90625 Z M 8.859375 2.90625 "/></g></g></g><g fill="#041f60" fill-opacity="1"><g transform="translate(306.388781, 705.410079)"><g><path d="M 10.84375 -14.796875 L 6.84375 1.671875 L 2.359375 0.578125 L 6.359375 -15.890625 Z M 10.1875 -21.796875 C 10.863281 -21.640625 11.398438 -21.347656 11.796875 -20.921875 C 12.203125 -20.492188 12.304688 -19.851562 12.109375 -19 C 11.898438 -18.175781 11.515625 -17.660156 10.953125 -17.453125 C 10.398438 -17.253906 9.785156 -17.234375 9.109375 -17.390625 C 8.429688 -17.554688 7.894531 -17.859375 7.5 -18.296875 C 7.101562 -18.734375 7.007812 -19.363281 7.21875 -20.1875 C 7.414062 -21.039062 7.789062 -21.5625 8.34375 -21.75 C 8.894531 -21.945312 9.507812 -21.960938 10.1875 -21.796875 Z M 10.1875 -21.796875 "/></g></g></g><g fill="#041f60" fill-opacity="1"><g transform="translate(316.1396, 707.920986)"><g><path d="M 14.984375 -14.765625 C 16.765625 -14.441406 18.109375 -13.695312 19.015625 -12.53125 C 19.921875 -11.363281 20.175781 -9.707031 19.78125 -7.5625 L 17.765625 3.296875 L 13.234375 2.453125 L 15.046875 -7.28125 C 15.265625 -8.46875 15.207031 -9.40625 14.875 -10.09375 C 14.550781 -10.78125 13.925781 -11.207031 13 -11.375 C 11.613281 -11.632812 10.578125 -11.34375 9.890625 -10.5 C 9.210938 -9.65625 8.707031 -8.335938 8.375 -6.546875 L 6.921875 1.28125 L 2.375 0.4375 L 5.46875 -16.234375 L 8.953125 -15.59375 L 9.15625 -13.328125 L 9.421875 -13.28125 C 9.878906 -13.789062 10.40625 -14.175781 11 -14.4375 C 11.59375 -14.695312 12.226562 -14.847656 12.90625 -14.890625 C 13.59375 -14.941406 14.285156 -14.898438 14.984375 -14.765625 Z M 14.984375 -14.765625 "/></g></g></g><g fill="#041f60" fill-opacity="1"><g transform="translate(336.951821, 711.701428)"><g><path d="M 6.484375 8.234375 C 4.128906 7.972656 2.378906 7.363281 1.234375 6.40625 C 0.0976562 5.445312 -0.382812 4.234375 -0.21875 2.765625 C -0.101562 1.742188 0.304688 0.925781 1.015625 0.3125 C 1.722656 -0.300781 2.703125 -0.675781 3.953125 -0.8125 C 3.515625 -1.070312 3.144531 -1.453125 2.84375 -1.953125 C 2.539062 -2.453125 2.421875 -2.957031 2.484375 -3.46875 C 2.554688 -4.113281 2.800781 -4.628906 3.21875 -5.015625 C 3.644531 -5.398438 4.234375 -5.753906 4.984375 -6.078125 C 4.140625 -6.566406 3.503906 -7.257812 3.078125 -8.15625 C 2.648438 -9.0625 2.503906 -10.082031 2.640625 -11.21875 C 2.773438 -12.457031 3.160156 -13.472656 3.796875 -14.265625 C 4.441406 -15.054688 5.304688 -15.617188 6.390625 -15.953125 C 7.472656 -16.296875 8.753906 -16.382812 10.234375 -16.21875 C 10.535156 -16.175781 10.890625 -16.113281 11.296875 -16.03125 C 11.703125 -15.945312 12.070312 -15.859375 12.40625 -15.765625 C 12.75 -15.679688 12.976562 -15.617188 13.09375 -15.578125 L 18.96875 -14.90625 L 18.703125 -12.5625 L 16 -12.1875 C 16.207031 -11.789062 16.34375 -11.375 16.40625 -10.9375 C 16.476562 -10.5 16.488281 -10.046875 16.4375 -9.578125 C 16.226562 -7.765625 15.4375 -6.425781 14.0625 -5.5625 C 12.6875 -4.695312 10.878906 -4.394531 8.640625 -4.65625 C 8.117188 -4.75 7.617188 -4.847656 7.140625 -4.953125 C 6.890625 -4.785156 6.695312 -4.609375 6.5625 -4.421875 C 6.425781 -4.234375 6.347656 -4.03125 6.328125 -3.8125 C 6.296875 -3.59375 6.359375 -3.398438 6.515625 -3.234375 C 6.679688 -3.066406 6.945312 -2.925781 7.3125 -2.8125 C 7.6875 -2.695312 8.160156 -2.601562 8.734375 -2.53125 L 11.578125 -2.21875 C 13.421875 -2.007812 14.785156 -1.453125 15.671875 -0.546875 C 16.554688 0.359375 16.910156 1.585938 16.734375 3.140625 C 16.515625 5.097656 15.519531 6.523438 13.75 7.421875 C 11.976562 8.316406 9.554688 8.585938 6.484375 8.234375 Z M 7.03125 5.265625 C 8.125 5.390625 9.070312 5.390625 9.875 5.265625 C 10.6875 5.148438 11.328125 4.929688 11.796875 4.609375 C 12.273438 4.285156 12.539062 3.859375 12.59375 3.328125 C 12.644531 2.910156 12.554688 2.566406 12.328125 2.296875 C 12.109375 2.023438 11.753906 1.8125 11.265625 1.65625 C 10.785156 1.5 10.15625 1.375 9.375 1.28125 L 7 1.015625 C 6.4375 0.953125 5.921875 0.984375 5.453125 1.109375 C 4.984375 1.242188 4.597656 1.457031 4.296875 1.75 C 4.003906 2.050781 3.835938 2.414062 3.796875 2.84375 C 3.722656 3.476562 3.96875 4.007812 4.53125 4.4375 C 5.101562 4.863281 5.9375 5.140625 7.03125 5.265625 Z M 9.234375 -7.421875 C 10.085938 -7.316406 10.742188 -7.507812 11.203125 -8 C 11.671875 -8.488281 11.957031 -9.191406 12.0625 -10.109375 C 12.175781 -11.128906 12.050781 -11.914062 11.6875 -12.46875 C 11.332031 -13.019531 10.742188 -13.34375 9.921875 -13.4375 C 9.066406 -13.53125 8.398438 -13.347656 7.921875 -12.890625 C 7.441406 -12.429688 7.144531 -11.691406 7.03125 -10.671875 C 6.925781 -9.753906 7.050781 -9.003906 7.40625 -8.421875 C 7.757812 -7.847656 8.367188 -7.515625 9.234375 -7.421875 Z M 9.234375 -7.421875 "/></g></g></g><g fill="#041f60" fill-opacity="1"><g transform="translate(354.890158, 713.615051)"><g/></g></g><g fill="#041f60" fill-opacity="1"><g transform="translate(363.491947, 714.330214)"><g><path d="M 7.359375 -23.5 L 7.296875 -18.6875 C 7.285156 -17.851562 7.242188 -17.054688 7.171875 -16.296875 C 7.109375 -15.535156 7.0625 -15 7.03125 -14.6875 L 7.265625 -14.6875 C 7.640625 -15.269531 8.078125 -15.738281 8.578125 -16.09375 C 9.085938 -16.445312 9.644531 -16.707031 10.25 -16.875 C 10.863281 -17.039062 11.519531 -17.117188 12.21875 -17.109375 C 13.445312 -17.085938 14.507812 -16.859375 15.40625 -16.421875 C 16.300781 -15.984375 16.992188 -15.300781 17.484375 -14.375 C 17.984375 -13.457031 18.222656 -12.269531 18.203125 -10.8125 L 18.0625 0.234375 L 13.453125 0.171875 L 13.578125 -9.734375 C 13.597656 -10.941406 13.382812 -11.851562 12.9375 -12.46875 C 12.5 -13.09375 11.816406 -13.410156 10.890625 -13.421875 C 9.960938 -13.429688 9.226562 -13.226562 8.6875 -12.8125 C 8.144531 -12.394531 7.753906 -11.769531 7.515625 -10.9375 C 7.285156 -10.101562 7.164062 -9.082031 7.15625 -7.875 L 7.046875 0.09375 L 2.421875 0.03125 L 2.734375 -23.5625 Z M 7.359375 -23.5 "/></g></g></g><g fill="#041f60" fill-opacity="1"><g transform="translate(384.660339, 714.544553)"><g><path d="M 8.390625 -17.78125 C 9.953125 -17.875 11.3125 -17.65625 12.46875 -17.125 C 13.632812 -16.59375 14.5625 -15.773438 15.25 -14.671875 C 15.9375 -13.566406 16.328125 -12.191406 16.421875 -10.546875 L 16.5625 -8.3125 L 5.640625 -7.671875 C 5.765625 -6.359375 6.210938 -5.351562 6.984375 -4.65625 C 7.765625 -3.96875 8.804688 -3.664062 10.109375 -3.75 C 11.191406 -3.8125 12.171875 -3.976562 13.046875 -4.25 C 13.929688 -4.53125 14.832031 -4.914062 15.75 -5.40625 L 15.96875 -1.828125 C 15.15625 -1.359375 14.296875 -1.003906 13.390625 -0.765625 C 12.492188 -0.523438 11.394531 -0.367188 10.09375 -0.296875 C 8.394531 -0.191406 6.875 -0.414062 5.53125 -0.96875 C 4.195312 -1.519531 3.117188 -2.410156 2.296875 -3.640625 C 1.484375 -4.867188 1.019531 -6.460938 0.90625 -8.421875 C 0.789062 -10.398438 1.03125 -12.066406 1.625 -13.421875 C 2.21875 -14.773438 3.09375 -15.816406 4.25 -16.546875 C 5.40625 -17.273438 6.785156 -17.6875 8.390625 -17.78125 Z M 8.609375 -14.5 C 7.710938 -14.445312 6.984375 -14.117188 6.421875 -13.515625 C 5.867188 -12.910156 5.582031 -11.988281 5.5625 -10.75 L 12.046875 -11.125 C 11.992188 -11.8125 11.832031 -12.414062 11.5625 -12.9375 C 11.300781 -13.457031 10.925781 -13.859375 10.4375 -14.140625 C 9.945312 -14.421875 9.335938 -14.539062 8.609375 -14.5 Z M 8.609375 -14.5 "/></g></g></g><g fill="#041f60" fill-opacity="1"><g transform="translate(403.70274, 713.411498)"><g><path d="M 7.109375 -18.34375 C 9.359375 -18.632812 11.148438 -18.363281 12.484375 -17.53125 C 13.816406 -16.707031 14.609375 -15.289062 14.859375 -13.28125 L 16.296875 -2.078125 L 13.078125 -1.671875 L 11.90625 -3.84375 L 11.78125 -3.828125 C 11.382812 -3.160156 10.957031 -2.601562 10.5 -2.15625 C 10.039062 -1.71875 9.492188 -1.367188 8.859375 -1.109375 C 8.234375 -0.847656 7.457031 -0.65625 6.53125 -0.53125 C 5.53125 -0.40625 4.613281 -0.484375 3.78125 -0.765625 C 2.957031 -1.046875 2.265625 -1.550781 1.703125 -2.28125 C 1.148438 -3.007812 0.796875 -3.976562 0.640625 -5.1875 C 0.410156 -6.976562 0.867188 -8.375 2.015625 -9.375 C 3.160156 -10.382812 4.984375 -11.09375 7.484375 -11.5 L 10.390625 -11.96875 L 10.296875 -12.703125 C 10.191406 -13.578125 9.878906 -14.191406 9.359375 -14.546875 C 8.847656 -14.910156 8.175781 -15.039062 7.34375 -14.9375 C 6.53125 -14.832031 5.75 -14.609375 5 -14.265625 C 4.25 -13.929688 3.503906 -13.539062 2.765625 -13.09375 L 0.859375 -16 C 1.691406 -16.582031 2.644531 -17.078125 3.71875 -17.484375 C 4.789062 -17.898438 5.921875 -18.1875 7.109375 -18.34375 Z M 10.734375 -9.296875 L 8.96875 -9 C 7.488281 -8.769531 6.488281 -8.375 5.96875 -7.8125 C 5.457031 -7.25 5.253906 -6.5625 5.359375 -5.75 C 5.453125 -5.050781 5.722656 -4.578125 6.171875 -4.328125 C 6.617188 -4.085938 7.175781 -4.007812 7.84375 -4.09375 C 8.820312 -4.21875 9.613281 -4.613281 10.21875 -5.28125 C 10.820312 -5.957031 11.054688 -6.832031 10.921875 -7.90625 Z M 10.734375 -9.296875 "/></g></g></g><g fill="#041f60" fill-opacity="1"><g transform="translate(422.833951, 710.830085)"><g><path d="M 6.9375 -1.25 L 2.390625 -0.4375 L -1.8125 -23.65625 L 2.734375 -24.46875 Z M 6.9375 -1.25 "/></g></g></g><g fill="#041f60" fill-opacity="1"><g transform="translate(432.607349, 709.091759)"><g><path d="M 8.578125 -5.40625 C 9.078125 -5.507812 9.550781 -5.664062 10 -5.875 C 10.445312 -6.082031 10.878906 -6.3125 11.296875 -6.5625 L 12.046875 -3.203125 C 11.628906 -2.878906 11.078125 -2.5625 10.390625 -2.25 C 9.703125 -1.945312 8.9375 -1.703125 8.09375 -1.515625 C 7.101562 -1.296875 6.179688 -1.257812 5.328125 -1.40625 C 4.472656 -1.550781 3.726562 -1.96875 3.09375 -2.65625 C 2.46875 -3.34375 1.992188 -4.398438 1.671875 -5.828125 L -0.125 -13.796875 L -2.265625 -13.3125 L -2.6875 -15.21875 L -0.546875 -17.28125 L -0.03125 -21.078125 L 2.84375 -21.71875 L 3.625 -18.1875 L 8.265625 -19.234375 L 9.03125 -15.859375 L 4.390625 -14.8125 L 6.1875 -6.84375 C 6.332031 -6.195312 6.617188 -5.757812 7.046875 -5.53125 C 7.472656 -5.3125 7.984375 -5.269531 8.578125 -5.40625 Z M 8.578125 -5.40625 "/></g></g></g><g fill="#041f60" fill-opacity="1"><g transform="translate(446.429067, 706.065142)"><g><path d="M 0.140625 -24.625 L 1.5 -20.015625 C 1.726562 -19.210938 1.921875 -18.4375 2.078125 -17.6875 C 2.234375 -16.9375 2.347656 -16.410156 2.421875 -16.109375 L 2.65625 -16.171875 C 2.832031 -16.835938 3.109375 -17.414062 3.484375 -17.90625 C 3.867188 -18.394531 4.328125 -18.804688 4.859375 -19.140625 C 5.390625 -19.472656 5.988281 -19.738281 6.65625 -19.9375 C 7.832031 -20.28125 8.914062 -20.375 9.90625 -20.21875 C 10.894531 -20.0625 11.757812 -19.613281 12.5 -18.875 C 13.25 -18.132812 13.832031 -17.066406 14.25 -15.671875 L 17.34375 -5.0625 L 12.90625 -3.78125 L 10.125 -13.296875 C 9.789062 -14.453125 9.320312 -15.257812 8.71875 -15.71875 C 8.113281 -16.175781 7.363281 -16.273438 6.46875 -16.015625 C 5.582031 -15.753906 4.941406 -15.34375 4.546875 -14.78125 C 4.148438 -14.226562 3.960938 -13.519531 3.984375 -12.65625 C 4.003906 -11.800781 4.1875 -10.796875 4.53125 -9.640625 L 6.765625 -1.984375 L 2.328125 -0.671875 L -4.296875 -23.3125 Z M 0.140625 -24.625 "/></g></g></g><g fill="#041f60" fill-opacity="1"><g transform="translate(466.4977, 700.015826)"><g/></g></g><g fill="#041f60" fill-opacity="1"><g transform="translate(474.639786, 697.282468)"><g><path d="M 2.234375 -19.546875 C 3.679688 -20.128906 5.039062 -20.351562 6.3125 -20.21875 C 7.582031 -20.09375 8.71875 -19.613281 9.71875 -18.78125 C 10.726562 -17.957031 11.546875 -16.785156 12.171875 -15.265625 L 13 -13.203125 L 2.859375 -9.078125 C 3.410156 -7.878906 4.164062 -7.070312 5.125 -6.65625 C 6.082031 -6.25 7.160156 -6.289062 8.359375 -6.78125 C 9.367188 -7.195312 10.242188 -7.675781 10.984375 -8.21875 C 11.734375 -8.757812 12.460938 -9.414062 13.171875 -10.1875 L 14.53125 -6.875 C 13.914062 -6.164062 13.21875 -5.550781 12.4375 -5.03125 C 11.65625 -4.507812 10.660156 -4.003906 9.453125 -3.515625 C 7.878906 -2.878906 6.367188 -2.601562 4.921875 -2.6875 C 3.484375 -2.78125 2.175781 -3.273438 1 -4.171875 C -0.175781 -5.078125 -1.128906 -6.441406 -1.859375 -8.265625 C -2.609375 -10.097656 -2.914062 -11.75 -2.78125 -13.21875 C -2.65625 -14.695312 -2.160156 -15.96875 -1.296875 -17.03125 C -0.429688 -18.101562 0.742188 -18.941406 2.234375 -19.546875 Z M 3.484375 -16.5 C 2.648438 -16.164062 2.066406 -15.617188 1.734375 -14.859375 C 1.410156 -14.097656 1.4375 -13.132812 1.8125 -11.96875 L 7.8125 -14.40625 C 7.539062 -15.039062 7.195312 -15.5625 6.78125 -15.96875 C 6.375 -16.375 5.890625 -16.632812 5.328125 -16.75 C 4.765625 -16.863281 4.148438 -16.78125 3.484375 -16.5 Z M 3.484375 -16.5 "/></g></g></g><g fill="#041f60" fill-opacity="1"><g transform="translate(492.32905, 690.092153)"><g><path d="M 14.59375 1.140625 L 11.46875 -5.234375 C 11.28125 -5.609375 11.109375 -6 10.953125 -6.40625 C 10.796875 -6.8125 10.648438 -7.21875 10.515625 -7.625 L 10.34375 -7.53125 C 10.257812 -6.707031 9.976562 -5.910156 9.5 -5.140625 C 9.03125 -4.367188 8.238281 -3.710938 7.125 -3.171875 C 5.40625 -2.328125 3.691406 -2.304688 1.984375 -3.109375 C 0.273438 -3.921875 -1.207031 -5.613281 -2.46875 -8.1875 C -3.320312 -9.925781 -3.789062 -11.5 -3.875 -12.90625 C -3.957031 -14.320312 -3.707031 -15.546875 -3.125 -16.578125 C -2.550781 -17.609375 -1.6875 -18.40625 -0.53125 -18.96875 C 0.582031 -19.519531 1.59375 -19.75 2.5 -19.65625 C 3.40625 -19.5625 4.226562 -19.3125 4.96875 -18.90625 L 5.078125 -18.953125 L 4.5 -21.09375 L 8 -22.8125 L 18.75 -0.90625 Z M 7.015625 -7.125 C 7.785156 -7.5 8.316406 -7.945312 8.609375 -8.46875 C 8.910156 -9 9.015625 -9.613281 8.921875 -10.3125 C 8.828125 -11.007812 8.5625 -11.820312 8.125 -12.75 L 7.890625 -13.234375 C 7.160156 -14.722656 6.375 -15.75 5.53125 -16.3125 C 4.695312 -16.875 3.675781 -16.851562 2.46875 -16.25 C 1.46875 -15.769531 0.921875 -15.015625 0.828125 -13.984375 C 0.734375 -12.960938 1.050781 -11.707031 1.78125 -10.21875 C 2.53125 -8.707031 3.335938 -7.6875 4.203125 -7.15625 C 5.066406 -6.632812 6.003906 -6.625 7.015625 -7.125 Z M 7.015625 -7.125 "/></g></g></g><g fill="#041f60" fill-opacity="1"><g transform="translate(510.671922, 681.073419)"><g><path d="M 6.9375 -23.71875 L 15.515625 -9.09375 L 12.453125 -7.296875 L 10.828125 -8.859375 L 10.609375 -8.734375 C 10.585938 -8.046875 10.429688 -7.410156 10.140625 -6.828125 C 9.859375 -6.242188 9.476562 -5.710938 9 -5.234375 C 8.519531 -4.753906 7.976562 -4.335938 7.375 -3.984375 C 6.320312 -3.359375 5.296875 -3 4.296875 -2.90625 C 3.296875 -2.820312 2.351562 -3.046875 1.46875 -3.578125 C 0.582031 -4.109375 -0.226562 -5 -0.96875 -6.25 L -6.5625 -15.796875 L -2.578125 -18.140625 L 2.4375 -9.59375 C 3.050781 -8.550781 3.703125 -7.875 4.390625 -7.5625 C 5.078125 -7.25 5.832031 -7.332031 6.65625 -7.8125 C 7.46875 -8.28125 7.992188 -8.835938 8.234375 -9.484375 C 8.472656 -10.128906 8.476562 -10.863281 8.25 -11.6875 C 8.019531 -12.519531 7.601562 -13.453125 7 -14.484375 L 2.953125 -21.375 Z M 6.9375 -23.71875 "/></g></g></g><g fill="#041f60" fill-opacity="1"><g transform="translate(528.694587, 670.317181)"><g><path d="M -3.5 -18.015625 L 5.875 -3.890625 L 2.015625 -1.34375 L -7.359375 -15.46875 Z M -9.078125 -22.296875 C -8.503906 -22.671875 -7.921875 -22.863281 -7.328125 -22.875 C -6.742188 -22.882812 -6.207031 -22.523438 -5.71875 -21.796875 C -5.25 -21.078125 -5.128906 -20.441406 -5.359375 -19.890625 C -5.597656 -19.347656 -6.003906 -18.890625 -6.578125 -18.515625 C -7.148438 -18.128906 -7.734375 -17.9375 -8.328125 -17.9375 C -8.921875 -17.9375 -9.453125 -18.296875 -9.921875 -19.015625 C -10.410156 -19.742188 -10.535156 -20.375 -10.296875 -20.90625 C -10.054688 -21.445312 -9.648438 -21.910156 -9.078125 -22.296875 Z M -9.078125 -22.296875 "/></g></g></g><g fill="#041f60" fill-opacity="1"><g transform="translate(536.985747, 664.857803)"><g><path d="M 5.75 -8.359375 C 6.164062 -8.648438 6.535156 -8.976562 6.859375 -9.34375 C 7.179688 -9.707031 7.492188 -10.085938 7.796875 -10.484375 L 9.8125 -7.703125 C 9.550781 -7.234375 9.164062 -6.722656 8.65625 -6.171875 C 8.144531 -5.628906 7.535156 -5.109375 6.828125 -4.609375 C 6.015625 -4.015625 5.1875 -3.613281 4.34375 -3.40625 C 3.5 -3.195312 2.648438 -3.285156 1.796875 -3.671875 C 0.953125 -4.054688 0.0976562 -4.835938 -0.765625 -6.015625 L -5.5625 -12.625 L -7.34375 -11.328125 L -8.484375 -12.921875 L -7.34375 -15.671875 L -8.359375 -19.34375 L -5.96875 -21.078125 L -3.84375 -18.15625 L 0 -20.9375 L 2.03125 -18.125 L -1.8125 -15.34375 L 2.984375 -8.734375 C 3.367188 -8.203125 3.800781 -7.914062 4.28125 -7.875 C 4.769531 -7.832031 5.257812 -7.992188 5.75 -8.359375 Z M 5.75 -8.359375 "/></g></g></g><g fill="#041f60" fill-opacity="1"><g transform="translate(548.415139, 656.613766)"><g><path d="M -10.734375 -13.125 L -6.8125 -16.328125 L 1.71875 -10.96875 C 1.96875 -10.789062 2.21875 -10.601562 2.46875 -10.40625 C 2.726562 -10.207031 2.984375 -9.992188 3.234375 -9.765625 C 3.492188 -9.546875 3.75 -9.304688 4 -9.046875 L 4.0625 -9.09375 C 3.757812 -9.5625 3.5 -10.015625 3.28125 -10.453125 C 3.070312 -10.890625 2.882812 -11.332031 2.71875 -11.78125 L -0.90625 -21.171875 L 2.9375 -24.296875 L 9.484375 -4.953125 C 9.898438 -3.785156 10.082031 -2.675781 10.03125 -1.625 C 9.988281 -0.570312 9.738281 0.390625 9.28125 1.265625 C 8.832031 2.140625 8.191406 2.921875 7.359375 3.609375 C 6.953125 3.941406 6.582031 4.207031 6.25 4.40625 C 5.925781 4.613281 5.640625 4.78125 5.390625 4.90625 L 3.0625 2.0625 C 3.25 1.96875 3.476562 1.832031 3.75 1.65625 C 4.03125 1.488281 4.304688 1.296875 4.578125 1.078125 C 5.078125 0.660156 5.421875 0.195312 5.609375 -0.3125 C 5.804688 -0.820312 5.878906 -1.351562 5.828125 -1.90625 C 5.785156 -2.457031 5.660156 -2.992188 5.453125 -3.515625 L 5.140625 -4.359375 Z M -10.734375 -13.125 "/></g></g></g></svg>